<?xml version="1.0" encoding="UTF-8"?>
<svg version="1.1" xmlns="http://www.w3.org/2000/svg" width="1843" height="1152">
<path d="M0 0 C608.19 0 1216.38 0 1843 0 C1843 380.16 1843 760.32 1843 1152 C1234.81 1152 626.62 1152 0 1152 C0 771.84 0 391.68 0 0 Z " fill="#FFFFFF" transform="translate(0,0)"/>
<path d="M0 0 C1.85253906 0.59130859 1.85253906 0.59130859 4 2 C5.28027344 4.88916016 5.28027344 4.88916016 6.359375 8.5390625 C6.71483398 9.71162598 7.07029297 10.88418945 7.43652344 12.09228516 C8.08669434 14.335979 8.08669434 14.335979 8.75 16.625 C10.1525 21.36875 11.555 26.1125 13 31 C27.85 31.495 27.85 31.495 43 32 C43.99 33.98 43.99 33.98 45 36 C37.85612604 42.68739639 29.92561733 48.29314273 22 54 C22.67135469 61.31691631 24.67424627 67.87025326 26.91601562 74.84179688 C27.18220703 75.69193359 27.44839844 76.54207031 27.72265625 77.41796875 C27.96765869 78.17875732 28.21266113 78.9395459 28.46508789 79.72338867 C29.05090476 82.21665307 29.09204903 84.44768033 29 87 C27.26171875 87.66503906 27.26171875 87.66503906 25 88 C22.95703125 86.96777344 22.95703125 86.96777344 20.8125 85.359375 C20.03132813 84.78316406 19.25015625 84.20695312 18.4453125 83.61328125 C17.63835937 82.99839844 16.83140625 82.38351562 16 81.75 C14.78957031 80.85087891 14.78957031 80.85087891 13.5546875 79.93359375 C10.63309141 77.75927059 7.72201572 75.57741324 4.87768555 73.30273438 C3.07544216 71.79075454 3.07544216 71.79075454 0.76953125 71.984375 C-3.33079334 73.48802013 -6.72200957 75.79216652 -10.3125 78.25 C-11.05306641 78.72824219 -11.79363281 79.20648438 -12.55664062 79.69921875 C-14.52748532 81.03975643 -16.31916377 82.30933432 -18 84 C-18.64689219 86.74845472 -18.64689219 86.74845472 -18 89 C-16.87851562 89.29003906 -16.87851562 89.29003906 -15.734375 89.5859375 C-14.74953125 89.84632813 -13.7646875 90.10671875 -12.75 90.375 C-11.28820312 90.75785156 -11.28820312 90.75785156 -9.796875 91.1484375 C-7.34162697 91.89598509 -5.24382595 92.77123817 -3 94 C-3.12890625 95.859375 -3.12890625 95.859375 -4 98 C-6.65234375 99.265625 -6.65234375 99.265625 -9.9375 100.25 C-11.01902344 100.58515625 -12.10054688 100.9203125 -13.21484375 101.265625 C-16 102 -16 102 -18 102 C-18.19335938 102.83144531 -18.38671875 103.66289062 -18.5859375 104.51953125 C-18.84632813 105.60621094 -19.10671875 106.69289063 -19.375 107.8125 C-19.75785156 109.43091797 -19.75785156 109.43091797 -20.1484375 111.08203125 C-21 114 -21 114 -23 117 C-24.859375 116.87109375 -24.859375 116.87109375 -27 116 C-28.265625 113.34765625 -28.265625 113.34765625 -29.25 110.0625 C-29.58515625 108.98097656 -29.9203125 107.89945312 -30.265625 106.78515625 C-31 104 -31 104 -31 102 C-31.74765625 101.80664062 -32.4953125 101.61328125 -33.265625 101.4140625 C-34.25046875 101.15367187 -35.2353125 100.89328125 -36.25 100.625 C-37.22453125 100.36976563 -38.1990625 100.11453125 -39.203125 99.8515625 C-41.65837303 99.10401491 -43.75617405 98.22876183 -46 97 C-45.87109375 95.140625 -45.87109375 95.140625 -45 93 C-42.34765625 91.734375 -42.34765625 91.734375 -39.0625 90.75 C-37.44021484 90.24726563 -37.44021484 90.24726563 -35.78515625 89.734375 C-33 89 -33 89 -31 89 C-30.80664062 88.25234375 -30.61328125 87.5046875 -30.4140625 86.734375 C-30.02347656 85.25710938 -30.02347656 85.25710938 -29.625 83.75 C-29.24214844 82.28820312 -29.24214844 82.28820312 -28.8515625 80.796875 C-28.10401491 78.34162697 -27.22876183 76.24382595 -26 74 C-25.34 74 -24.68 74 -24 74 C-23.32749476 71.41806023 -22.66182099 68.83467929 -22 66.25 C-21.80921875 65.52039063 -21.6184375 64.79078125 -21.421875 64.0390625 C-20.53484036 60.55428354 -20 57.61876278 -20 54 C-21.35030499 52.44801807 -21.35030499 52.44801807 -23.25390625 51.1953125 C-23.94419922 50.69386719 -24.63449219 50.19242188 -25.34570312 49.67578125 C-26.07724609 49.16402344 -26.80878906 48.65226562 -27.5625 48.125 C-28.9822343 47.10923402 -30.40021593 46.09101373 -31.81640625 45.0703125 C-32.85885498 44.32056152 -32.85885498 44.32056152 -33.92236328 43.55566406 C-37.08598091 41.18685425 -40.03431315 38.61105149 -43 36 C-42.34 34.68 -41.68 33.36 -41 32 C-26.15 31.505 -26.15 31.505 -11 31 C-10.37351562 28.92976563 -9.74703125 26.85953125 -9.1015625 24.7265625 C-8.49077586 22.72381545 -7.87781962 20.72174465 -7.26464844 18.71972656 C-6.83952114 17.3275158 -6.41665443 15.93461267 -5.99609375 14.54101562 C-5.39134587 12.53850143 -4.77852368 10.53861439 -4.1640625 8.5390625 C-3.79748535 7.33459473 -3.4309082 6.13012695 -3.05322266 4.88916016 C-2 2 -2 2 0 0 Z " fill="#FFFF00" transform="translate(485,199)"/>
<path d="M0 0 C1.8125 0.5625 1.8125 0.5625 4 2 C4.433125 3.134375 4.86625 4.26875 5.3125 5.4375 C7.46306621 9.97758422 9.46034267 10.2345777 14 12 C14.7109375 14.08203125 14.7109375 14.08203125 15 16 C14.07767578 16.29390625 14.07767578 16.29390625 13.13671875 16.59375 C8.19296798 18.32975719 8.19296798 18.32975719 4.734375 22.046875 C3.81307492 24.47701322 3.81307492 24.47701322 3 28 C1.11328125 27.7421875 1.11328125 27.7421875 -1 27 C-2.01953125 25.2578125 -2.01953125 25.2578125 -2.8125 23.125 C-4.29264751 19.80804293 -5.37019202 18.4008862 -8.75 17 C-9.8225 16.67 -10.895 16.34 -12 16 C-12 14.68 -12 13.36 -12 12 C-10.741875 11.67 -9.48375 11.34 -8.1875 11 C-5.52197106 10.02986049 -4.30813095 9.51493024 -2.8359375 7.0546875 C-2.12531096 5.05201271 -1.55600982 3.04942462 -1 1 C-0.67 0.67 -0.34 0.34 0 0 Z " fill="#FFFF09" transform="translate(521,196)"/>
<path d="M0 0 C0.99 0 1.98 0 3 0 C3.33 1.65 3.66 3.3 4 5 C6.64 5.66 9.28 6.32 12 7 C9.08235 8.9451 7.37462715 9.45276317 4 10 C3.34 12.64 2.68 15.28 2 18 C0.0549 15.08235 -0.45276317 13.37462715 -1 10 C-3.64 9.34 -6.28 8.68 -9 8 C-6.08235 6.0549 -4.37462715 5.54723683 -1 5 C-0.67 3.35 -0.34 1.7 0 0 Z " fill="#FFFFFF" transform="translate(459,287)"/>
</svg>
